<svg xmlns="http://www.w3.org/2000/svg" viewBox="0 0 110.00 190.53"><g transform="translate(1.14,1.14)"><path fill-rule="evenodd" fill="#d9be7f" fill-opacity="0.024" d="M-3,-3H113.00V193.53H-3ZM-6.00,0.00a6.00,6.00 0 1,0 12.00,0a6.00,6.00 0 1,0 -12.00,0ZM9.98,0.63A10.00,10.00 0 0,1 7.50,6.61L13.50,11.90A18.00,18.00 0 0,0 17.96,1.13ZM6.61,7.50A10.00,10.00 0 0,1 0.63,9.98L1.13,17.96A18.00,18.00 0 0,0 11.90,13.50ZM-0.63,9.98A10.00,10.00 0 0,1 -6.61,7.50L-11.90,13.50A18.00,18.00 0 0,0 -1.13,17.96ZM-7.50,6.61A10.00,10.00 0 0,1 -9.98,0.63L-17.96,1.13A18.00,18.00 0 0,0 -13.50,11.90ZM-9.98,-0.63A10.00,10.00 0 0,1 -7.50,-6.61L-13.50,-11.90A18.00,18.00 0 0,0 -17.96,-1.13ZM-6.61,-7.50A10.00,10.00 0 0,1 -0.63,-9.98L-1.13,-17.96A18.00,18.00 0 0,0 -11.90,-13.50ZM0.63,-9.98A10.00,10.00 0 0,1 6.61,-7.50L11.90,-13.50A18.00,18.00 0 0,0 1.13,-17.96ZM7.50,-6.61A10.00,10.00 0 0,1 9.98,-0.63L17.96,-1.13A18.00,18.00 0 0,0 13.50,-11.90ZM19.71,5.64A20.50,20.50 0 0,1 15.88,12.96L22.85,18.66A29.50,29.50 0 0,0 28.36,8.11ZM14.83,14.15A20.50,20.50 0 0,1 8.04,18.86L11.56,27.14A29.50,29.50 0 0,0 21.34,20.37ZM6.56,19.42A20.50,20.50 0 0,1 -1.65,20.43L-2.37,29.40A29.50,29.50 0 0,0 9.43,27.95ZM-3.22,20.25A20.50,20.50 0 0,1 -10.96,17.33L-15.77,24.93A29.50,29.50 0 0,0 -4.64,29.13ZM-12.26,16.43A20.50,20.50 0 0,1 -17.75,10.25L-25.55,14.75A29.50,29.50 0 0,0 -17.64,23.64ZM-18.49,8.85A20.50,20.50 0 0,1 -20.48,0.83L-29.48,1.19A29.50,29.50 0 0,0 -26.61,12.73ZM-20.49,-0.76A20.50,20.50 0 0,1 -18.52,-8.79L-26.65,-12.65A29.50,29.50 0 0,0 -29.48,-1.09ZM-17.79,-10.19A20.50,20.50 0 0,1 -12.32,-16.39L-17.72,-23.58A29.50,29.50 0 0,0 -25.60,-14.67ZM-11.01,-17.29A20.50,20.50 0 0,1 -3.29,-20.23L-4.73,-29.12A29.50,29.50 0 0,0 -15.85,-24.88ZM-1.72,-20.43A20.50,20.50 0 0,1 6.49,-19.45L9.34,-27.98A29.50,29.50 0 0,0 -2.47,-29.40ZM7.97,-18.89A20.50,20.50 0 0,1 14.78,-14.20L21.27,-20.44A29.50,29.50 0 0,0 11.47,-27.18ZM15.84,-13.02A20.50,20.50 0 0,1 19.69,-5.70L28.33,-8.21A29.50,29.50 0 0,0 22.79,-18.73ZM20.07,-4.17A20.50,20.50 0 0,1 20.09,4.10L28.90,5.90A29.50,29.50 0 0,0 28.88,-6.00ZM31.99,0.89A32.00,32.00 0 0,1 30.36,10.10L37.96,12.63A40.00,40.00 0 0,0 39.98,1.12ZM29.75,11.78A32.00,32.00 0 0,1 25.08,19.88L31.35,24.85A40.00,40.00 0 0,0 37.19,14.72ZM23.93,21.25A32.00,32.00 0 0,1 16.77,27.26L20.96,34.07A40.00,40.00 0 0,0 29.91,26.56ZM15.22,28.15A32.00,32.00 0 0,1 6.43,31.35L8.04,39.18A40.00,40.00 0 0,0 19.02,35.19ZM4.67,31.66A32.00,32.00 0 0,1 -4.67,31.66L-5.84,39.57A40.00,40.00 0 0,0 5.84,39.57ZM-6.43,31.35A32.00,32.00 0 0,1 -15.22,28.15L-19.02,35.19A40.00,40.00 0 0,0 -8.04,39.18ZM-16.77,27.26A32.00,32.00 0 0,1 -23.93,21.25L-29.91,26.56A40.00,40.00 0 0,0 -20.96,34.07ZM-25.08,19.88A32.00,32.00 0 0,1 -29.75,11.78L-37.19,14.72A40.00,40.00 0 0,0 -31.35,24.85ZM-30.36,10.10A32.00,32.00 0 0,1 -31.99,0.89L-39.98,1.12A40.00,40.00 0 0,0 -37.96,12.63ZM-31.99,-0.89A32.00,32.00 0 0,1 -30.36,-10.10L-37.96,-12.63A40.00,40.00 0 0,0 -39.98,-1.12ZM-29.75,-11.78A32.00,32.00 0 0,1 -25.08,-19.88L-31.35,-24.85A40.00,40.00 0 0,0 -37.19,-14.72ZM-23.93,-21.25A32.00,32.00 0 0,1 -16.77,-27.26L-20.96,-34.07A40.00,40.00 0 0,0 -29.91,-26.56ZM-15.22,-28.15A32.00,32.00 0 0,1 -6.43,-31.35L-8.04,-39.18A40.00,40.00 0 0,0 -19.02,-35.19ZM-4.67,-31.66A32.00,32.00 0 0,1 4.67,-31.66L5.84,-39.57A40.00,40.00 0 0,0 -5.84,-39.57ZM6.43,-31.35A32.00,32.00 0 0,1 15.22,-28.15L19.02,-35.19A40.00,40.00 0 0,0 8.04,-39.18ZM16.77,-27.26A32.00,32.00 0 0,1 23.93,-21.25L29.91,-26.56A40.00,40.00 0 0,0 20.96,-34.07ZM25.08,-19.88A32.00,32.00 0 0,1 29.75,-11.78L37.19,-14.72A40.00,40.00 0 0,0 31.35,-24.85ZM30.36,-10.10A32.00,32.00 0 0,1 31.99,-0.89L39.98,-1.12A40.00,40.00 0 0,0 37.96,-12.63ZM104.00,0.00a6.00,6.00 0 1,0 12.00,0a6.00,6.00 0 1,0 -12.00,0ZM119.98,0.63A10.00,10.00 0 0,1 117.50,6.61L123.50,11.90A18.00,18.00 0 0,0 127.96,1.13ZM116.61,7.50A10.00,10.00 0 0,1 110.63,9.98L111.13,17.96A18.00,18.00 0 0,0 121.90,13.50ZM109.37,9.98A10.00,10.00 0 0,1 103.39,7.50L98.10,13.50A18.00,18.00 0 0,0 108.87,17.96ZM102.50,6.61A10.00,10.00 0 0,1 100.02,0.63L92.04,1.13A18.00,18.00 0 0,0 96.50,11.90ZM100.02,-0.63A10.00,10.00 0 0,1 102.50,-6.61L96.50,-11.90A18.00,18.00 0 0,0 92.04,-1.13ZM103.39,-7.50A10.00,10.00 0 0,1 109.37,-9.98L108.87,-17.96A18.00,18.00 0 0,0 98.10,-13.50ZM110.63,-9.98A10.00,10.00 0 0,1 116.61,-7.50L121.90,-13.50A18.00,18.00 0 0,0 111.13,-17.96ZM117.50,-6.61A10.00,10.00 0 0,1 119.98,-0.63L127.96,-1.13A18.00,18.00 0 0,0 123.50,-11.90ZM129.71,5.64A20.50,20.50 0 0,1 125.88,12.96L132.85,18.66A29.50,29.50 0 0,0 138.36,8.11ZM124.83,14.15A20.50,20.50 0 0,1 118.04,18.86L121.56,27.14A29.50,29.50 0 0,0 131.34,20.37ZM116.56,19.42A20.50,20.50 0 0,1 108.35,20.43L107.63,29.40A29.50,29.50 0 0,0 119.43,27.95ZM106.78,20.25A20.50,20.50 0 0,1 99.04,17.33L94.23,24.93A29.50,29.50 0 0,0 105.36,29.13ZM97.74,16.43A20.50,20.50 0 0,1 92.25,10.25L84.45,14.75A29.50,29.50 0 0,0 92.36,23.64ZM91.51,8.85A20.50,20.50 0 0,1 89.52,0.83L80.52,1.19A29.50,29.50 0 0,0 83.39,12.73ZM89.51,-0.76A20.50,20.50 0 0,1 91.48,-8.79L83.35,-12.65A29.50,29.50 0 0,0 80.52,-1.09ZM92.21,-10.19A20.50,20.50 0 0,1 97.68,-16.39L92.28,-23.58A29.50,29.50 0 0,0 84.40,-14.67ZM98.99,-17.29A20.50,20.50 0 0,1 106.71,-20.23L105.27,-29.12A29.50,29.50 0 0,0 94.15,-24.88ZM108.28,-20.43A20.50,20.50 0 0,1 116.49,-19.45L119.34,-27.98A29.50,29.50 0 0,0 107.53,-29.40ZM117.97,-18.89A20.50,20.50 0 0,1 124.78,-14.20L131.27,-20.44A29.50,29.50 0 0,0 121.47,-27.18ZM125.84,-13.02A20.50,20.50 0 0,1 129.69,-5.70L138.33,-8.21A29.50,29.50 0 0,0 132.79,-18.73ZM130.07,-4.17A20.50,20.50 0 0,1 130.09,4.10L138.90,5.90A29.50,29.50 0 0,0 138.88,-6.00ZM141.99,0.89A32.00,32.00 0 0,1 140.36,10.10L147.96,12.63A40.00,40.00 0 0,0 149.98,1.12ZM139.75,11.78A32.00,32.00 0 0,1 135.08,19.88L141.35,24.85A40.00,40.00 0 0,0 147.19,14.72ZM133.93,21.25A32.00,32.00 0 0,1 126.77,27.26L130.96,34.07A40.00,40.00 0 0,0 139.91,26.56ZM125.22,28.15A32.00,32.00 0 0,1 116.43,31.35L118.04,39.18A40.00,40.00 0 0,0 129.02,35.19ZM114.67,31.66A32.00,32.00 0 0,1 105.33,31.66L104.16,39.57A40.00,40.00 0 0,0 115.84,39.57ZM103.57,31.35A32.00,32.00 0 0,1 94.78,28.15L90.98,35.19A40.00,40.00 0 0,0 101.96,39.18ZM93.23,27.26A32.00,32.00 0 0,1 86.07,21.25L80.09,26.56A40.00,40.00 0 0,0 89.04,34.07ZM84.92,19.88A32.00,32.00 0 0,1 80.25,11.78L72.81,14.72A40.00,40.00 0 0,0 78.65,24.85ZM79.64,10.10A32.00,32.00 0 0,1 78.01,0.89L70.02,1.12A40.00,40.00 0 0,0 72.04,12.63ZM78.01,-0.89A32.00,32.00 0 0,1 79.64,-10.10L72.04,-12.63A40.00,40.00 0 0,0 70.02,-1.12ZM80.25,-11.78A32.00,32.00 0 0,1 84.92,-19.88L78.65,-24.85A40.00,40.00 0 0,0 72.81,-14.72ZM86.07,-21.25A32.00,32.00 0 0,1 93.23,-27.26L89.04,-34.07A40.00,40.00 0 0,0 80.09,-26.56ZM94.78,-28.15A32.00,32.00 0 0,1 103.57,-31.35L101.96,-39.18A40.00,40.00 0 0,0 90.98,-35.19ZM105.33,-31.66A32.00,32.00 0 0,1 114.67,-31.66L115.84,-39.57A40.00,40.00 0 0,0 104.16,-39.57ZM116.43,-31.35A32.00,32.00 0 0,1 125.22,-28.15L129.02,-35.19A40.00,40.00 0 0,0 118.04,-39.18ZM126.77,-27.26A32.00,32.00 0 0,1 133.93,-21.25L139.91,-26.56A40.00,40.00 0 0,0 130.96,-34.07ZM135.08,-19.88A32.00,32.00 0 0,1 139.75,-11.78L147.19,-14.72A40.00,40.00 0 0,0 141.35,-24.85ZM140.36,-10.10A32.00,32.00 0 0,1 141.99,-0.89L149.98,-1.12A40.00,40.00 0 0,0 147.96,-12.63ZM49.00,95.26a6.00,6.00 0 1,0 12.00,0a6.00,6.00 0 1,0 -12.00,0ZM64.98,95.89A10.00,10.00 0 0,1 62.50,101.88L68.50,107.17A18.00,18.00 0 0,0 72.96,96.39ZM61.61,102.76A10.00,10.00 0 0,1 55.63,105.24L56.13,113.23A18.00,18.00 0 0,0 66.90,108.76ZM54.37,105.24A10.00,10.00 0 0,1 48.39,102.76L43.10,108.76A18.00,18.00 0 0,0 53.87,113.23ZM47.50,101.88A10.00,10.00 0 0,1 45.02,95.89L37.04,96.39A18.00,18.00 0 0,0 41.50,107.17ZM45.02,94.63A10.00,10.00 0 0,1 47.50,88.65L41.50,83.36A18.00,18.00 0 0,0 37.04,94.13ZM48.39,87.76A10.00,10.00 0 0,1 54.37,85.28L53.87,77.30A18.00,18.00 0 0,0 43.10,81.76ZM55.63,85.28A10.00,10.00 0 0,1 61.61,87.76L66.90,81.76A18.00,18.00 0 0,0 56.13,77.30ZM62.50,88.65A10.00,10.00 0 0,1 64.98,94.63L72.96,94.13A18.00,18.00 0 0,0 68.50,83.36ZM74.71,100.90A20.50,20.50 0 0,1 70.88,108.23L77.85,113.92A29.50,29.50 0 0,0 83.36,103.38ZM69.83,109.42A20.50,20.50 0 0,1 63.04,114.12L66.56,122.40A29.50,29.50 0 0,0 76.34,115.63ZM61.56,114.69A20.50,20.50 0 0,1 53.35,115.70L52.63,124.67A29.50,29.50 0 0,0 64.43,123.21ZM51.78,115.51A20.50,20.50 0 0,1 44.04,112.59L39.23,120.20A29.50,29.50 0 0,0 50.36,124.40ZM42.74,111.69A20.50,20.50 0 0,1 37.25,105.51L29.45,110.01A29.50,29.50 0 0,0 37.36,118.90ZM36.51,104.11A20.50,20.50 0 0,1 34.52,96.09L25.52,96.45A29.50,29.50 0 0,0 28.39,108.00ZM34.51,94.50A20.50,20.50 0 0,1 36.48,86.48L28.35,82.62A29.50,29.50 0 0,0 25.52,94.17ZM37.21,85.07A20.50,20.50 0 0,1 42.68,78.87L37.28,71.68A29.50,29.50 0 0,0 29.40,80.60ZM43.99,77.97A20.50,20.50 0 0,1 51.71,75.03L50.27,66.15A29.50,29.50 0 0,0 39.15,70.38ZM53.28,74.83A20.50,20.50 0 0,1 61.49,75.82L64.34,67.28A29.50,29.50 0 0,0 52.53,65.87ZM62.97,76.38A20.50,20.50 0 0,1 69.78,81.06L76.27,74.83A29.50,29.50 0 0,0 66.47,68.09ZM70.84,82.25A20.50,20.50 0 0,1 74.69,89.56L83.33,87.05A29.50,29.50 0 0,0 77.79,76.53ZM75.07,91.10A20.50,20.50 0 0,1 75.09,99.36L83.90,101.16A29.50,29.50 0 0,0 83.88,89.27ZM86.99,96.16A32.00,32.00 0 0,1 85.36,105.36L92.96,107.89A40.00,40.00 0 0,0 94.98,96.38ZM84.75,107.04A32.00,32.00 0 0,1 80.08,115.14L86.35,120.11A40.00,40.00 0 0,0 92.19,109.99ZM78.93,116.51A32.00,32.00 0 0,1 71.77,122.52L75.96,129.33A40.00,40.00 0 0,0 84.91,121.82ZM70.22,123.41A32.00,32.00 0 0,1 61.43,126.61L63.04,134.45A40.00,40.00 0 0,0 74.02,130.45ZM59.67,126.92A32.00,32.00 0 0,1 50.33,126.92L49.16,134.83A40.00,40.00 0 0,0 60.84,134.83ZM48.57,126.61A32.00,32.00 0 0,1 39.78,123.41L35.98,130.45A40.00,40.00 0 0,0 46.96,134.45ZM38.23,122.52A32.00,32.00 0 0,1 31.07,116.51L25.09,121.82A40.00,40.00 0 0,0 34.04,129.33ZM29.92,115.14A32.00,32.00 0 0,1 25.25,107.04L17.81,109.99A40.00,40.00 0 0,0 23.65,120.11ZM24.64,105.36A32.00,32.00 0 0,1 23.01,96.16L15.02,96.38A40.00,40.00 0 0,0 17.04,107.89ZM23.01,94.37A32.00,32.00 0 0,1 24.64,85.16L17.04,82.64A40.00,40.00 0 0,0 15.02,94.15ZM25.25,83.48A32.00,32.00 0 0,1 29.92,75.39L23.65,70.42A40.00,40.00 0 0,0 17.81,80.54ZM31.07,74.02A32.00,32.00 0 0,1 38.23,68.01L34.04,61.19A40.00,40.00 0 0,0 25.09,68.71ZM39.78,67.11A32.00,32.00 0 0,1 48.57,63.92L46.96,56.08A40.00,40.00 0 0,0 35.98,60.08ZM50.33,63.61A32.00,32.00 0 0,1 59.67,63.61L60.84,55.69A40.00,40.00 0 0,0 49.16,55.69ZM61.43,63.92A32.00,32.00 0 0,1 70.22,67.11L74.02,60.08A40.00,40.00 0 0,0 63.04,56.08ZM71.77,68.01A32.00,32.00 0 0,1 78.93,74.02L84.91,68.71A40.00,40.00 0 0,0 75.96,61.19ZM80.08,75.39A32.00,32.00 0 0,1 84.75,83.48L92.19,80.54A40.00,40.00 0 0,0 86.35,70.42ZM85.36,85.16A32.00,32.00 0 0,1 86.99,94.37L94.98,94.15A40.00,40.00 0 0,0 92.96,82.64ZM-6.00,190.53a6.00,6.00 0 1,0 12.00,0a6.00,6.00 0 1,0 -12.00,0ZM9.98,191.15A10.00,10.00 0 0,1 7.50,197.14L13.50,202.43A18.00,18.00 0 0,0 17.96,191.66ZM6.61,198.03A10.00,10.00 0 0,1 0.63,200.51L1.13,208.49A18.00,18.00 0 0,0 11.90,204.03ZM-0.63,200.51A10.00,10.00 0 0,1 -6.61,198.03L-11.90,204.03A18.00,18.00 0 0,0 -1.13,208.49ZM-7.50,197.14A10.00,10.00 0 0,1 -9.98,191.15L-17.96,191.66A18.00,18.00 0 0,0 -13.50,202.43ZM-9.98,189.90A10.00,10.00 0 0,1 -7.50,183.91L-13.50,178.62A18.00,18.00 0 0,0 -17.96,189.40ZM-6.61,183.02A10.00,10.00 0 0,1 -0.63,180.55L-1.13,172.56A18.00,18.00 0 0,0 -11.90,177.02ZM0.63,180.55A10.00,10.00 0 0,1 6.61,183.02L11.90,177.02A18.00,18.00 0 0,0 1.13,172.56ZM7.50,183.91A10.00,10.00 0 0,1 9.98,189.90L17.96,189.40A18.00,18.00 0 0,0 13.50,178.62ZM19.71,196.16A20.50,20.50 0 0,1 15.88,203.49L22.85,209.18A29.50,29.50 0 0,0 28.36,198.64ZM14.83,204.68A20.50,20.50 0 0,1 8.04,209.38L11.56,217.66A29.50,29.50 0 0,0 21.34,210.89ZM6.56,209.95A20.50,20.50 0 0,1 -1.65,210.96L-2.37,219.93A29.50,29.50 0 0,0 9.43,218.48ZM-3.22,210.77A20.50,20.50 0 0,1 -10.96,207.85L-15.77,215.46A29.50,29.50 0 0,0 -4.64,219.66ZM-12.26,206.95A20.50,20.50 0 0,1 -17.75,200.78L-25.55,205.28A29.50,29.50 0 0,0 -17.64,214.17ZM-18.49,199.37A20.50,20.50 0 0,1 -20.48,191.35L-29.48,191.71A29.50,29.50 0 0,0 -26.61,203.26ZM-20.49,189.77A20.50,20.50 0 0,1 -18.52,181.74L-26.65,177.88A29.50,29.50 0 0,0 -29.48,189.43ZM-17.79,180.33A20.50,20.50 0 0,1 -12.32,174.14L-17.72,166.94A29.50,29.50 0 0,0 -25.60,175.86ZM-11.01,173.24A20.50,20.50 0 0,1 -3.29,170.29L-4.73,161.41A29.50,29.50 0 0,0 -15.85,165.64ZM-1.72,170.10A20.50,20.50 0 0,1 6.49,171.08L9.34,162.54A29.50,29.50 0 0,0 -2.47,161.13ZM7.97,171.64A20.50,20.50 0 0,1 14.78,176.32L21.27,170.09A29.50,29.50 0 0,0 11.47,163.35ZM15.84,177.51A20.50,20.50 0 0,1 19.69,184.82L28.33,182.32A29.50,29.50 0 0,0 22.79,171.79ZM20.07,186.36A20.50,20.50 0 0,1 20.09,194.63L28.90,196.42A29.50,29.50 0 0,0 28.88,184.53ZM31.99,191.42A32.00,32.00 0 0,1 30.36,200.63L37.96,203.15A40.00,40.00 0 0,0 39.98,191.64ZM29.75,202.31A32.00,32.00 0 0,1 25.08,210.40L31.35,215.37A40.00,40.00 0 0,0 37.19,205.25ZM23.93,211.77A32.00,32.00 0 0,1 16.77,217.78L20.96,224.59A40.00,40.00 0 0,0 29.91,217.08ZM15.22,218.67A32.00,32.00 0 0,1 6.43,221.87L8.04,229.71A40.00,40.00 0 0,0 19.02,225.71ZM4.67,222.18A32.00,32.00 0 0,1 -4.67,222.18L-5.84,230.10A40.00,40.00 0 0,0 5.84,230.10ZM-6.43,221.87A32.00,32.00 0 0,1 -15.22,218.67L-19.02,225.71A40.00,40.00 0 0,0 -8.04,229.71ZM-16.77,217.78A32.00,32.00 0 0,1 -23.93,211.77L-29.91,217.08A40.00,40.00 0 0,0 -20.96,224.59ZM-25.08,210.40A32.00,32.00 0 0,1 -29.75,202.31L-37.19,205.25A40.00,40.00 0 0,0 -31.35,215.37ZM-30.36,200.63A32.00,32.00 0 0,1 -31.99,191.42L-39.98,191.64A40.00,40.00 0 0,0 -37.96,203.15ZM-31.99,189.63A32.00,32.00 0 0,1 -30.36,180.42L-37.96,177.90A40.00,40.00 0 0,0 -39.98,189.41ZM-29.75,178.75A32.00,32.00 0 0,1 -25.08,170.65L-31.35,165.68A40.00,40.00 0 0,0 -37.19,175.80ZM-23.93,169.28A32.00,32.00 0 0,1 -16.77,163.27L-20.96,156.46A40.00,40.00 0 0,0 -29.91,163.97ZM-15.22,162.38A32.00,32.00 0 0,1 -6.43,159.18L-8.04,151.34A40.00,40.00 0 0,0 -19.02,155.34ZM-4.67,158.87A32.00,32.00 0 0,1 4.67,158.87L5.84,150.95A40.00,40.00 0 0,0 -5.84,150.95ZM6.43,159.18A32.00,32.00 0 0,1 15.22,162.38L19.02,155.34A40.00,40.00 0 0,0 8.04,151.34ZM16.77,163.27A32.00,32.00 0 0,1 23.93,169.28L29.91,163.97A40.00,40.00 0 0,0 20.96,156.46ZM25.08,170.65A32.00,32.00 0 0,1 29.75,178.75L37.19,175.80A40.00,40.00 0 0,0 31.35,165.68ZM30.36,180.42A32.00,32.00 0 0,1 31.99,189.63L39.98,189.41A40.00,40.00 0 0,0 37.96,177.90ZM104.00,190.53a6.00,6.00 0 1,0 12.00,0a6.00,6.00 0 1,0 -12.00,0ZM119.98,191.15A10.00,10.00 0 0,1 117.50,197.14L123.50,202.43A18.00,18.00 0 0,0 127.96,191.66ZM116.61,198.03A10.00,10.00 0 0,1 110.63,200.51L111.13,208.49A18.00,18.00 0 0,0 121.90,204.03ZM109.37,200.51A10.00,10.00 0 0,1 103.39,198.03L98.10,204.03A18.00,18.00 0 0,0 108.87,208.49ZM102.50,197.14A10.00,10.00 0 0,1 100.02,191.15L92.04,191.66A18.00,18.00 0 0,0 96.50,202.43ZM100.02,189.90A10.00,10.00 0 0,1 102.50,183.91L96.50,178.62A18.00,18.00 0 0,0 92.04,189.40ZM103.39,183.02A10.00,10.00 0 0,1 109.37,180.55L108.87,172.56A18.00,18.00 0 0,0 98.10,177.02ZM110.63,180.55A10.00,10.00 0 0,1 116.61,183.02L121.90,177.02A18.00,18.00 0 0,0 111.13,172.56ZM117.50,183.91A10.00,10.00 0 0,1 119.98,189.90L127.96,189.40A18.00,18.00 0 0,0 123.50,178.62ZM129.71,196.16A20.50,20.50 0 0,1 125.88,203.49L132.85,209.18A29.50,29.50 0 0,0 138.36,198.64ZM124.83,204.68A20.50,20.50 0 0,1 118.04,209.38L121.56,217.66A29.50,29.50 0 0,0 131.34,210.89ZM116.56,209.95A20.50,20.50 0 0,1 108.35,210.96L107.63,219.93A29.50,29.50 0 0,0 119.43,218.48ZM106.78,210.77A20.50,20.50 0 0,1 99.04,207.85L94.23,215.46A29.50,29.50 0 0,0 105.36,219.66ZM97.74,206.95A20.50,20.50 0 0,1 92.25,200.78L84.45,205.28A29.50,29.50 0 0,0 92.36,214.17ZM91.51,199.37A20.50,20.50 0 0,1 89.52,191.35L80.52,191.71A29.50,29.50 0 0,0 83.39,203.26ZM89.51,189.77A20.50,20.50 0 0,1 91.48,181.74L83.35,177.88A29.50,29.50 0 0,0 80.52,189.43ZM92.21,180.33A20.50,20.50 0 0,1 97.68,174.14L92.28,166.94A29.50,29.50 0 0,0 84.40,175.86ZM98.99,173.24A20.50,20.50 0 0,1 106.71,170.29L105.27,161.41A29.50,29.50 0 0,0 94.15,165.64ZM108.28,170.10A20.50,20.50 0 0,1 116.49,171.08L119.34,162.54A29.50,29.50 0 0,0 107.53,161.13ZM117.97,171.64A20.50,20.50 0 0,1 124.78,176.32L131.27,170.09A29.50,29.50 0 0,0 121.47,163.35ZM125.84,177.51A20.50,20.50 0 0,1 129.69,184.82L138.33,182.32A29.50,29.50 0 0,0 132.79,171.79ZM130.07,186.36A20.50,20.50 0 0,1 130.09,194.63L138.90,196.42A29.50,29.50 0 0,0 138.88,184.53ZM141.99,191.42A32.00,32.00 0 0,1 140.36,200.63L147.96,203.15A40.00,40.00 0 0,0 149.98,191.64ZM139.75,202.31A32.00,32.00 0 0,1 135.08,210.40L141.35,215.37A40.00,40.00 0 0,0 147.19,205.25ZM133.93,211.77A32.00,32.00 0 0,1 126.77,217.78L130.96,224.59A40.00,40.00 0 0,0 139.91,217.08ZM125.22,218.67A32.00,32.00 0 0,1 116.43,221.87L118.04,229.71A40.00,40.00 0 0,0 129.02,225.71ZM114.67,222.18A32.00,32.00 0 0,1 105.33,222.18L104.16,230.10A40.00,40.00 0 0,0 115.84,230.10ZM103.57,221.87A32.00,32.00 0 0,1 94.78,218.67L90.98,225.71A40.00,40.00 0 0,0 101.96,229.71ZM93.23,217.78A32.00,32.00 0 0,1 86.07,211.77L80.09,217.08A40.00,40.00 0 0,0 89.04,224.59ZM84.92,210.40A32.00,32.00 0 0,1 80.25,202.31L72.81,205.25A40.00,40.00 0 0,0 78.65,215.37ZM79.64,200.63A32.00,32.00 0 0,1 78.01,191.42L70.02,191.64A40.00,40.00 0 0,0 72.04,203.15ZM78.01,189.63A32.00,32.00 0 0,1 79.64,180.42L72.04,177.90A40.00,40.00 0 0,0 70.02,189.41ZM80.25,178.75A32.00,32.00 0 0,1 84.92,170.65L78.65,165.68A40.00,40.00 0 0,0 72.81,175.80ZM86.07,169.28A32.00,32.00 0 0,1 93.23,163.27L89.04,156.46A40.00,40.00 0 0,0 80.09,163.97ZM94.78,162.38A32.00,32.00 0 0,1 103.57,159.18L101.96,151.34A40.00,40.00 0 0,0 90.98,155.34ZM105.33,158.87A32.00,32.00 0 0,1 114.67,158.87L115.84,150.95A40.00,40.00 0 0,0 104.16,150.95ZM116.43,159.18A32.00,32.00 0 0,1 125.22,162.38L129.02,155.34A40.00,40.00 0 0,0 118.04,151.34ZM126.77,163.27A32.00,32.00 0 0,1 133.93,169.28L139.91,163.97A40.00,40.00 0 0,0 130.96,156.46ZM135.08,170.65A32.00,32.00 0 0,1 139.75,178.75L147.19,175.80A40.00,40.00 0 0,0 141.35,165.68ZM140.36,180.42A32.00,32.00 0 0,1 141.99,189.63L149.98,189.41A40.00,40.00 0 0,0 147.96,177.90ZM55.00,14.75L58.82,26.50L71.17,26.50L61.18,33.76L64.99,45.51L55.00,38.25L45.01,45.51L48.82,33.76L38.83,26.50L51.18,26.50ZM61.96,15.98a4.50,4.50 0 1,0 9.00,0a4.50,4.50 0 1,0 -9.00,0ZM69.05,37.78a4.50,4.50 0 1,0 9.00,0a4.50,4.50 0 1,0 -9.00,0ZM31.95,37.78a4.50,4.50 0 1,0 9.00,0a4.50,4.50 0 1,0 -9.00,0ZM39.04,15.98a4.50,4.50 0 1,0 9.00,0a4.50,4.50 0 1,0 -9.00,0ZM55.00,175.77L51.18,164.03L38.83,164.02L48.82,156.76L45.01,145.02L55.00,152.27L64.99,145.02L61.18,156.76L71.17,164.02L58.82,164.03ZM39.04,174.55a4.50,4.50 0 1,0 9.00,0a4.50,4.50 0 1,0 -9.00,0ZM31.95,152.75a4.50,4.50 0 1,0 9.00,0a4.50,4.50 0 1,0 -9.00,0ZM69.05,152.75a4.50,4.50 0 1,0 9.00,0a4.50,4.50 0 1,0 -9.00,0ZM61.96,174.55a4.50,4.50 0 1,0 9.00,0a4.50,4.50 0 1,0 -9.00,0ZM0.00,80.51L-3.82,68.77L-16.17,68.76L-6.18,61.50L-9.99,49.76L-0.00,57.01L9.99,49.76L6.18,61.50L16.17,68.76L3.82,68.77ZM-15.96,79.28a4.50,4.50 0 1,0 9.00,0a4.50,4.50 0 1,0 -9.00,0ZM-23.05,57.48a4.50,4.50 0 1,0 9.00,0a4.50,4.50 0 1,0 -9.00,0ZM14.05,57.48a4.50,4.50 0 1,0 9.00,0a4.50,4.50 0 1,0 -9.00,0ZM6.96,79.28a4.50,4.50 0 1,0 9.00,0a4.50,4.50 0 1,0 -9.00,0ZM110.00,80.51L106.18,68.77L93.83,68.76L103.82,61.50L100.01,49.76L110.00,57.01L119.99,49.76L116.18,61.50L126.17,68.76L113.82,68.77ZM94.04,79.28a4.50,4.50 0 1,0 9.00,0a4.50,4.50 0 1,0 -9.00,0ZM86.95,57.48a4.50,4.50 0 1,0 9.00,0a4.50,4.50 0 1,0 -9.00,0ZM124.05,57.48a4.50,4.50 0 1,0 9.00,0a4.50,4.50 0 1,0 -9.00,0ZM116.96,79.28a4.50,4.50 0 1,0 9.00,0a4.50,4.50 0 1,0 -9.00,0ZM110.00,80.51L106.18,68.77L93.83,68.76L103.82,61.50L100.01,49.76L110.00,57.01L119.99,49.76L116.18,61.50L126.17,68.76L113.82,68.77ZM94.04,79.28a4.50,4.50 0 1,0 9.00,0a4.50,4.50 0 1,0 -9.00,0ZM86.95,57.48a4.50,4.50 0 1,0 9.00,0a4.50,4.50 0 1,0 -9.00,0ZM124.05,57.48a4.50,4.50 0 1,0 9.00,0a4.50,4.50 0 1,0 -9.00,0ZM116.96,79.28a4.50,4.50 0 1,0 9.00,0a4.50,4.50 0 1,0 -9.00,0ZM0.00,80.51L-3.82,68.77L-16.17,68.76L-6.18,61.50L-9.99,49.76L-0.00,57.01L9.99,49.76L6.18,61.50L16.17,68.76L3.82,68.77ZM-15.96,79.28a4.50,4.50 0 1,0 9.00,0a4.50,4.50 0 1,0 -9.00,0ZM-23.05,57.48a4.50,4.50 0 1,0 9.00,0a4.50,4.50 0 1,0 -9.00,0ZM14.05,57.48a4.50,4.50 0 1,0 9.00,0a4.50,4.50 0 1,0 -9.00,0ZM6.96,79.28a4.50,4.50 0 1,0 9.00,0a4.50,4.50 0 1,0 -9.00,0ZM-0.00,110.02L3.82,121.76L16.17,121.76L6.18,129.03L9.99,140.77L0.00,133.52L-9.99,140.77L-6.18,129.03L-16.17,121.76L-3.82,121.76ZM6.96,111.24a4.50,4.50 0 1,0 9.00,0a4.50,4.50 0 1,0 -9.00,0ZM14.05,133.04a4.50,4.50 0 1,0 9.00,0a4.50,4.50 0 1,0 -9.00,0ZM-23.05,133.04a4.50,4.50 0 1,0 9.00,0a4.50,4.50 0 1,0 -9.00,0ZM-15.96,111.24a4.50,4.50 0 1,0 9.00,0a4.50,4.50 0 1,0 -9.00,0ZM110.00,110.02L113.82,121.76L126.17,121.76L116.18,129.03L119.99,140.77L110.00,133.52L100.01,140.77L103.82,129.03L93.83,121.76L106.18,121.76ZM116.96,111.24a4.50,4.50 0 1,0 9.00,0a4.50,4.50 0 1,0 -9.00,0ZM124.05,133.04a4.50,4.50 0 1,0 9.00,0a4.50,4.50 0 1,0 -9.00,0ZM86.95,133.04a4.50,4.50 0 1,0 9.00,0a4.50,4.50 0 1,0 -9.00,0ZM94.04,111.24a4.50,4.50 0 1,0 9.00,0a4.50,4.50 0 1,0 -9.00,0ZM110.00,110.02L113.82,121.76L126.17,121.76L116.18,129.03L119.99,140.77L110.00,133.52L100.01,140.77L103.82,129.03L93.83,121.76L106.18,121.76ZM116.96,111.24a4.50,4.50 0 1,0 9.00,0a4.50,4.50 0 1,0 -9.00,0ZM124.05,133.04a4.50,4.50 0 1,0 9.00,0a4.50,4.50 0 1,0 -9.00,0ZM86.95,133.04a4.50,4.50 0 1,0 9.00,0a4.50,4.50 0 1,0 -9.00,0ZM94.04,111.24a4.50,4.50 0 1,0 9.00,0a4.50,4.50 0 1,0 -9.00,0ZM-0.00,110.02L3.82,121.76L16.17,121.76L6.18,129.03L9.99,140.77L0.00,133.52L-9.99,140.77L-6.18,129.03L-16.17,121.76L-3.82,121.76ZM6.96,111.24a4.50,4.50 0 1,0 9.00,0a4.50,4.50 0 1,0 -9.00,0ZM14.05,133.04a4.50,4.50 0 1,0 9.00,0a4.50,4.50 0 1,0 -9.00,0ZM-23.05,133.04a4.50,4.50 0 1,0 9.00,0a4.50,4.50 0 1,0 -9.00,0ZM-15.96,111.24a4.50,4.50 0 1,0 9.00,0a4.50,4.50 0 1,0 -9.00,0ZM48.50,0.00a6.50,6.50 0 1,0 13.00,0a6.50,6.50 0 1,0 -13.00,0ZM48.50,190.53a6.50,6.50 0 1,0 13.00,0a6.50,6.50 0 1,0 -13.00,0ZM21.00,47.63a6.50,6.50 0 1,0 13.00,0a6.50,6.50 0 1,0 -13.00,0ZM76.00,47.63a6.50,6.50 0 1,0 13.00,0a6.50,6.50 0 1,0 -13.00,0ZM21.00,142.89a6.50,6.50 0 1,0 13.00,0a6.50,6.50 0 1,0 -13.00,0ZM76.00,142.89a6.50,6.50 0 1,0 13.00,0a6.50,6.50 0 1,0 -13.00,0Z"/></g><path fill-rule="evenodd" fill="#f0e6cf" fill-opacity="0.033" d="M-3,-3H113.00V193.53H-3ZM-6.00,0.00a6.00,6.00 0 1,0 12.00,0a6.00,6.00 0 1,0 -12.00,0ZM9.98,0.63A10.00,10.00 0 0,1 7.50,6.61L13.50,11.90A18.00,18.00 0 0,0 17.96,1.13ZM6.61,7.50A10.00,10.00 0 0,1 0.63,9.98L1.13,17.96A18.00,18.00 0 0,0 11.90,13.50ZM-0.63,9.98A10.00,10.00 0 0,1 -6.61,7.50L-11.90,13.50A18.00,18.00 0 0,0 -1.13,17.96ZM-7.50,6.61A10.00,10.00 0 0,1 -9.98,0.63L-17.96,1.13A18.00,18.00 0 0,0 -13.50,11.90ZM-9.98,-0.63A10.00,10.00 0 0,1 -7.50,-6.61L-13.50,-11.90A18.00,18.00 0 0,0 -17.96,-1.13ZM-6.61,-7.50A10.00,10.00 0 0,1 -0.63,-9.98L-1.13,-17.96A18.00,18.00 0 0,0 -11.90,-13.50ZM0.63,-9.98A10.00,10.00 0 0,1 6.61,-7.50L11.90,-13.50A18.00,18.00 0 0,0 1.13,-17.96ZM7.50,-6.61A10.00,10.00 0 0,1 9.98,-0.63L17.96,-1.13A18.00,18.00 0 0,0 13.50,-11.90ZM19.71,5.64A20.50,20.50 0 0,1 15.88,12.96L22.85,18.66A29.50,29.50 0 0,0 28.36,8.11ZM14.83,14.15A20.50,20.50 0 0,1 8.04,18.86L11.56,27.14A29.50,29.50 0 0,0 21.34,20.37ZM6.56,19.42A20.50,20.50 0 0,1 -1.65,20.43L-2.37,29.40A29.50,29.50 0 0,0 9.43,27.95ZM-3.22,20.25A20.50,20.50 0 0,1 -10.96,17.33L-15.77,24.93A29.50,29.50 0 0,0 -4.64,29.13ZM-12.26,16.43A20.50,20.50 0 0,1 -17.75,10.25L-25.55,14.75A29.50,29.50 0 0,0 -17.64,23.64ZM-18.49,8.85A20.50,20.50 0 0,1 -20.48,0.83L-29.48,1.19A29.50,29.50 0 0,0 -26.61,12.73ZM-20.49,-0.76A20.50,20.50 0 0,1 -18.52,-8.79L-26.65,-12.65A29.50,29.50 0 0,0 -29.48,-1.09ZM-17.79,-10.19A20.50,20.50 0 0,1 -12.32,-16.39L-17.72,-23.58A29.50,29.50 0 0,0 -25.60,-14.67ZM-11.01,-17.29A20.50,20.50 0 0,1 -3.29,-20.23L-4.73,-29.12A29.50,29.50 0 0,0 -15.85,-24.88ZM-1.72,-20.43A20.50,20.50 0 0,1 6.49,-19.45L9.34,-27.98A29.50,29.50 0 0,0 -2.47,-29.40ZM7.97,-18.89A20.50,20.50 0 0,1 14.78,-14.20L21.27,-20.44A29.50,29.50 0 0,0 11.47,-27.18ZM15.84,-13.02A20.50,20.50 0 0,1 19.69,-5.70L28.33,-8.21A29.50,29.50 0 0,0 22.79,-18.73ZM20.07,-4.17A20.50,20.50 0 0,1 20.09,4.10L28.90,5.90A29.50,29.50 0 0,0 28.88,-6.00ZM31.99,0.89A32.00,32.00 0 0,1 30.36,10.10L37.96,12.63A40.00,40.00 0 0,0 39.98,1.12ZM29.75,11.78A32.00,32.00 0 0,1 25.08,19.88L31.35,24.85A40.00,40.00 0 0,0 37.19,14.72ZM23.93,21.25A32.00,32.00 0 0,1 16.77,27.26L20.96,34.07A40.00,40.00 0 0,0 29.91,26.56ZM15.22,28.15A32.00,32.00 0 0,1 6.43,31.35L8.04,39.18A40.00,40.00 0 0,0 19.02,35.19ZM4.67,31.66A32.00,32.00 0 0,1 -4.67,31.66L-5.84,39.57A40.00,40.00 0 0,0 5.84,39.57ZM-6.43,31.35A32.00,32.00 0 0,1 -15.22,28.15L-19.02,35.19A40.00,40.00 0 0,0 -8.04,39.18ZM-16.77,27.26A32.00,32.00 0 0,1 -23.93,21.25L-29.91,26.56A40.00,40.00 0 0,0 -20.96,34.07ZM-25.08,19.88A32.00,32.00 0 0,1 -29.75,11.78L-37.19,14.72A40.00,40.00 0 0,0 -31.35,24.85ZM-30.36,10.10A32.00,32.00 0 0,1 -31.99,0.89L-39.98,1.12A40.00,40.00 0 0,0 -37.96,12.63ZM-31.99,-0.89A32.00,32.00 0 0,1 -30.36,-10.10L-37.96,-12.63A40.00,40.00 0 0,0 -39.98,-1.12ZM-29.75,-11.78A32.00,32.00 0 0,1 -25.08,-19.88L-31.35,-24.85A40.00,40.00 0 0,0 -37.19,-14.72ZM-23.93,-21.25A32.00,32.00 0 0,1 -16.77,-27.26L-20.96,-34.07A40.00,40.00 0 0,0 -29.91,-26.56ZM-15.22,-28.15A32.00,32.00 0 0,1 -6.43,-31.35L-8.04,-39.18A40.00,40.00 0 0,0 -19.02,-35.19ZM-4.67,-31.66A32.00,32.00 0 0,1 4.67,-31.66L5.84,-39.57A40.00,40.00 0 0,0 -5.84,-39.57ZM6.43,-31.35A32.00,32.00 0 0,1 15.22,-28.15L19.02,-35.19A40.00,40.00 0 0,0 8.04,-39.18ZM16.77,-27.26A32.00,32.00 0 0,1 23.93,-21.25L29.91,-26.56A40.00,40.00 0 0,0 20.96,-34.07ZM25.08,-19.88A32.00,32.00 0 0,1 29.75,-11.78L37.19,-14.72A40.00,40.00 0 0,0 31.35,-24.85ZM30.36,-10.10A32.00,32.00 0 0,1 31.99,-0.89L39.98,-1.12A40.00,40.00 0 0,0 37.96,-12.63ZM104.00,0.00a6.00,6.00 0 1,0 12.00,0a6.00,6.00 0 1,0 -12.00,0ZM119.98,0.63A10.00,10.00 0 0,1 117.50,6.61L123.50,11.90A18.00,18.00 0 0,0 127.96,1.13ZM116.61,7.50A10.00,10.00 0 0,1 110.63,9.98L111.13,17.96A18.00,18.00 0 0,0 121.90,13.50ZM109.37,9.98A10.00,10.00 0 0,1 103.39,7.50L98.10,13.50A18.00,18.00 0 0,0 108.87,17.96ZM102.50,6.61A10.00,10.00 0 0,1 100.02,0.63L92.04,1.13A18.00,18.00 0 0,0 96.50,11.90ZM100.02,-0.63A10.00,10.00 0 0,1 102.50,-6.61L96.50,-11.90A18.00,18.00 0 0,0 92.04,-1.13ZM103.39,-7.50A10.00,10.00 0 0,1 109.37,-9.98L108.87,-17.96A18.00,18.00 0 0,0 98.10,-13.50ZM110.63,-9.98A10.00,10.00 0 0,1 116.61,-7.50L121.90,-13.50A18.00,18.00 0 0,0 111.13,-17.96ZM117.50,-6.61A10.00,10.00 0 0,1 119.98,-0.63L127.96,-1.13A18.00,18.00 0 0,0 123.50,-11.90ZM129.71,5.64A20.50,20.50 0 0,1 125.88,12.96L132.85,18.66A29.50,29.50 0 0,0 138.36,8.11ZM124.83,14.15A20.50,20.50 0 0,1 118.04,18.86L121.56,27.14A29.50,29.50 0 0,0 131.34,20.37ZM116.56,19.42A20.50,20.50 0 0,1 108.35,20.43L107.63,29.40A29.50,29.50 0 0,0 119.43,27.95ZM106.78,20.25A20.50,20.50 0 0,1 99.04,17.33L94.23,24.93A29.50,29.50 0 0,0 105.36,29.13ZM97.74,16.43A20.50,20.50 0 0,1 92.25,10.25L84.45,14.75A29.50,29.50 0 0,0 92.36,23.64ZM91.51,8.85A20.50,20.50 0 0,1 89.52,0.83L80.52,1.19A29.50,29.50 0 0,0 83.39,12.73ZM89.51,-0.76A20.50,20.50 0 0,1 91.48,-8.79L83.35,-12.65A29.50,29.50 0 0,0 80.52,-1.09ZM92.21,-10.19A20.50,20.50 0 0,1 97.68,-16.39L92.28,-23.58A29.50,29.50 0 0,0 84.40,-14.67ZM98.99,-17.29A20.50,20.50 0 0,1 106.71,-20.23L105.27,-29.12A29.50,29.50 0 0,0 94.15,-24.88ZM108.28,-20.43A20.50,20.50 0 0,1 116.49,-19.45L119.34,-27.98A29.50,29.50 0 0,0 107.53,-29.40ZM117.97,-18.89A20.50,20.50 0 0,1 124.78,-14.20L131.27,-20.44A29.50,29.50 0 0,0 121.47,-27.18ZM125.84,-13.02A20.50,20.50 0 0,1 129.69,-5.70L138.33,-8.21A29.50,29.50 0 0,0 132.79,-18.73ZM130.07,-4.17A20.50,20.50 0 0,1 130.09,4.10L138.90,5.90A29.50,29.50 0 0,0 138.88,-6.00ZM141.99,0.89A32.00,32.00 0 0,1 140.36,10.10L147.96,12.63A40.00,40.00 0 0,0 149.98,1.12ZM139.75,11.78A32.00,32.00 0 0,1 135.08,19.88L141.35,24.85A40.00,40.00 0 0,0 147.19,14.72ZM133.93,21.25A32.00,32.00 0 0,1 126.77,27.26L130.96,34.07A40.00,40.00 0 0,0 139.91,26.56ZM125.22,28.15A32.00,32.00 0 0,1 116.43,31.35L118.04,39.18A40.00,40.00 0 0,0 129.02,35.19ZM114.67,31.66A32.00,32.00 0 0,1 105.33,31.66L104.16,39.57A40.00,40.00 0 0,0 115.84,39.57ZM103.57,31.35A32.00,32.00 0 0,1 94.78,28.15L90.98,35.19A40.00,40.00 0 0,0 101.96,39.18ZM93.23,27.26A32.00,32.00 0 0,1 86.07,21.25L80.09,26.56A40.00,40.00 0 0,0 89.04,34.07ZM84.92,19.88A32.00,32.00 0 0,1 80.25,11.78L72.81,14.72A40.00,40.00 0 0,0 78.65,24.85ZM79.64,10.10A32.00,32.00 0 0,1 78.01,0.89L70.02,1.12A40.00,40.00 0 0,0 72.04,12.63ZM78.01,-0.89A32.00,32.00 0 0,1 79.64,-10.10L72.04,-12.63A40.00,40.00 0 0,0 70.02,-1.12ZM80.25,-11.78A32.00,32.00 0 0,1 84.92,-19.88L78.65,-24.85A40.00,40.00 0 0,0 72.81,-14.72ZM86.07,-21.25A32.00,32.00 0 0,1 93.23,-27.26L89.04,-34.07A40.00,40.00 0 0,0 80.09,-26.56ZM94.78,-28.15A32.00,32.00 0 0,1 103.57,-31.35L101.96,-39.18A40.00,40.00 0 0,0 90.98,-35.19ZM105.33,-31.66A32.00,32.00 0 0,1 114.67,-31.66L115.84,-39.57A40.00,40.00 0 0,0 104.16,-39.57ZM116.43,-31.35A32.00,32.00 0 0,1 125.22,-28.15L129.02,-35.19A40.00,40.00 0 0,0 118.04,-39.18ZM126.77,-27.26A32.00,32.00 0 0,1 133.93,-21.25L139.91,-26.56A40.00,40.00 0 0,0 130.96,-34.07ZM135.08,-19.88A32.00,32.00 0 0,1 139.75,-11.78L147.19,-14.72A40.00,40.00 0 0,0 141.35,-24.85ZM140.36,-10.10A32.00,32.00 0 0,1 141.99,-0.89L149.98,-1.12A40.00,40.00 0 0,0 147.96,-12.63ZM49.00,95.26a6.00,6.00 0 1,0 12.00,0a6.00,6.00 0 1,0 -12.00,0ZM64.98,95.89A10.00,10.00 0 0,1 62.50,101.88L68.50,107.17A18.00,18.00 0 0,0 72.96,96.39ZM61.61,102.76A10.00,10.00 0 0,1 55.63,105.24L56.13,113.23A18.00,18.00 0 0,0 66.90,108.76ZM54.37,105.24A10.00,10.00 0 0,1 48.39,102.76L43.10,108.76A18.00,18.00 0 0,0 53.87,113.23ZM47.50,101.88A10.00,10.00 0 0,1 45.02,95.89L37.04,96.39A18.00,18.00 0 0,0 41.50,107.17ZM45.02,94.63A10.00,10.00 0 0,1 47.50,88.65L41.50,83.36A18.00,18.00 0 0,0 37.04,94.13ZM48.39,87.76A10.00,10.00 0 0,1 54.37,85.28L53.87,77.30A18.00,18.00 0 0,0 43.10,81.76ZM55.63,85.28A10.00,10.00 0 0,1 61.61,87.76L66.90,81.76A18.00,18.00 0 0,0 56.13,77.30ZM62.50,88.65A10.00,10.00 0 0,1 64.98,94.63L72.96,94.13A18.00,18.00 0 0,0 68.50,83.36ZM74.71,100.90A20.50,20.50 0 0,1 70.88,108.23L77.85,113.92A29.50,29.50 0 0,0 83.36,103.38ZM69.83,109.42A20.50,20.50 0 0,1 63.04,114.12L66.56,122.40A29.50,29.50 0 0,0 76.34,115.63ZM61.56,114.69A20.50,20.50 0 0,1 53.35,115.70L52.63,124.67A29.50,29.50 0 0,0 64.43,123.21ZM51.78,115.51A20.50,20.50 0 0,1 44.04,112.59L39.23,120.20A29.50,29.50 0 0,0 50.36,124.40ZM42.74,111.69A20.50,20.50 0 0,1 37.25,105.51L29.45,110.01A29.50,29.50 0 0,0 37.36,118.90ZM36.51,104.11A20.50,20.50 0 0,1 34.52,96.09L25.52,96.45A29.50,29.50 0 0,0 28.39,108.00ZM34.51,94.50A20.50,20.50 0 0,1 36.48,86.48L28.35,82.62A29.50,29.50 0 0,0 25.52,94.17ZM37.21,85.07A20.50,20.50 0 0,1 42.68,78.87L37.28,71.68A29.50,29.50 0 0,0 29.40,80.60ZM43.99,77.97A20.50,20.50 0 0,1 51.71,75.03L50.27,66.15A29.50,29.50 0 0,0 39.15,70.38ZM53.28,74.83A20.50,20.50 0 0,1 61.49,75.82L64.34,67.28A29.50,29.50 0 0,0 52.53,65.87ZM62.97,76.38A20.50,20.50 0 0,1 69.78,81.06L76.27,74.83A29.50,29.50 0 0,0 66.47,68.09ZM70.84,82.25A20.50,20.50 0 0,1 74.69,89.56L83.33,87.05A29.50,29.50 0 0,0 77.79,76.53ZM75.07,91.10A20.50,20.50 0 0,1 75.09,99.36L83.90,101.16A29.50,29.50 0 0,0 83.88,89.27ZM86.99,96.16A32.00,32.00 0 0,1 85.36,105.36L92.96,107.89A40.00,40.00 0 0,0 94.98,96.38ZM84.75,107.04A32.00,32.00 0 0,1 80.08,115.14L86.35,120.11A40.00,40.00 0 0,0 92.19,109.99ZM78.93,116.51A32.00,32.00 0 0,1 71.77,122.52L75.96,129.33A40.00,40.00 0 0,0 84.91,121.82ZM70.22,123.41A32.00,32.00 0 0,1 61.43,126.61L63.04,134.45A40.00,40.00 0 0,0 74.02,130.45ZM59.67,126.92A32.00,32.00 0 0,1 50.33,126.92L49.16,134.83A40.00,40.00 0 0,0 60.84,134.83ZM48.57,126.61A32.00,32.00 0 0,1 39.78,123.41L35.98,130.45A40.00,40.00 0 0,0 46.96,134.45ZM38.23,122.52A32.00,32.00 0 0,1 31.07,116.51L25.09,121.82A40.00,40.00 0 0,0 34.04,129.33ZM29.92,115.14A32.00,32.00 0 0,1 25.25,107.04L17.81,109.99A40.00,40.00 0 0,0 23.65,120.11ZM24.64,105.36A32.00,32.00 0 0,1 23.01,96.16L15.02,96.38A40.00,40.00 0 0,0 17.04,107.89ZM23.01,94.37A32.00,32.00 0 0,1 24.64,85.16L17.04,82.64A40.00,40.00 0 0,0 15.02,94.15ZM25.25,83.48A32.00,32.00 0 0,1 29.92,75.39L23.65,70.42A40.00,40.00 0 0,0 17.81,80.54ZM31.07,74.02A32.00,32.00 0 0,1 38.23,68.01L34.04,61.19A40.00,40.00 0 0,0 25.09,68.71ZM39.78,67.11A32.00,32.00 0 0,1 48.57,63.92L46.96,56.08A40.00,40.00 0 0,0 35.98,60.08ZM50.33,63.61A32.00,32.00 0 0,1 59.67,63.61L60.84,55.69A40.00,40.00 0 0,0 49.16,55.69ZM61.43,63.92A32.00,32.00 0 0,1 70.22,67.11L74.02,60.08A40.00,40.00 0 0,0 63.04,56.08ZM71.77,68.01A32.00,32.00 0 0,1 78.93,74.02L84.91,68.71A40.00,40.00 0 0,0 75.96,61.19ZM80.08,75.39A32.00,32.00 0 0,1 84.75,83.48L92.19,80.54A40.00,40.00 0 0,0 86.35,70.42ZM85.36,85.16A32.00,32.00 0 0,1 86.99,94.37L94.98,94.15A40.00,40.00 0 0,0 92.96,82.64ZM-6.00,190.53a6.00,6.00 0 1,0 12.00,0a6.00,6.00 0 1,0 -12.00,0ZM9.98,191.15A10.00,10.00 0 0,1 7.50,197.14L13.50,202.43A18.00,18.00 0 0,0 17.96,191.66ZM6.61,198.03A10.00,10.00 0 0,1 0.63,200.51L1.13,208.49A18.00,18.00 0 0,0 11.90,204.03ZM-0.63,200.51A10.00,10.00 0 0,1 -6.61,198.03L-11.90,204.03A18.00,18.00 0 0,0 -1.13,208.49ZM-7.50,197.14A10.00,10.00 0 0,1 -9.98,191.15L-17.96,191.66A18.00,18.00 0 0,0 -13.50,202.43ZM-9.98,189.90A10.00,10.00 0 0,1 -7.50,183.91L-13.50,178.62A18.00,18.00 0 0,0 -17.96,189.40ZM-6.61,183.02A10.00,10.00 0 0,1 -0.63,180.55L-1.13,172.56A18.00,18.00 0 0,0 -11.90,177.02ZM0.63,180.55A10.00,10.00 0 0,1 6.61,183.02L11.90,177.02A18.00,18.00 0 0,0 1.13,172.56ZM7.50,183.91A10.00,10.00 0 0,1 9.98,189.90L17.96,189.40A18.00,18.00 0 0,0 13.50,178.62ZM19.71,196.16A20.50,20.50 0 0,1 15.88,203.49L22.85,209.18A29.50,29.50 0 0,0 28.36,198.64ZM14.83,204.68A20.50,20.50 0 0,1 8.04,209.38L11.56,217.66A29.50,29.50 0 0,0 21.34,210.89ZM6.56,209.95A20.50,20.50 0 0,1 -1.65,210.96L-2.37,219.93A29.50,29.50 0 0,0 9.43,218.48ZM-3.22,210.77A20.50,20.50 0 0,1 -10.96,207.85L-15.77,215.46A29.50,29.50 0 0,0 -4.64,219.66ZM-12.26,206.95A20.50,20.50 0 0,1 -17.75,200.78L-25.55,205.28A29.50,29.50 0 0,0 -17.64,214.17ZM-18.49,199.37A20.50,20.50 0 0,1 -20.48,191.35L-29.48,191.71A29.50,29.50 0 0,0 -26.61,203.26ZM-20.49,189.77A20.50,20.50 0 0,1 -18.52,181.74L-26.65,177.88A29.50,29.50 0 0,0 -29.48,189.43ZM-17.79,180.33A20.50,20.50 0 0,1 -12.32,174.14L-17.72,166.94A29.50,29.50 0 0,0 -25.60,175.86ZM-11.01,173.24A20.50,20.50 0 0,1 -3.29,170.29L-4.73,161.41A29.50,29.50 0 0,0 -15.85,165.64ZM-1.72,170.10A20.50,20.50 0 0,1 6.49,171.08L9.34,162.54A29.50,29.50 0 0,0 -2.47,161.13ZM7.97,171.64A20.50,20.50 0 0,1 14.78,176.32L21.27,170.09A29.50,29.50 0 0,0 11.47,163.35ZM15.84,177.51A20.50,20.50 0 0,1 19.69,184.82L28.33,182.32A29.50,29.50 0 0,0 22.79,171.79ZM20.07,186.36A20.50,20.50 0 0,1 20.09,194.63L28.90,196.42A29.50,29.50 0 0,0 28.88,184.53ZM31.99,191.42A32.00,32.00 0 0,1 30.36,200.63L37.96,203.15A40.00,40.00 0 0,0 39.98,191.64ZM29.75,202.31A32.00,32.00 0 0,1 25.08,210.40L31.35,215.37A40.00,40.00 0 0,0 37.19,205.25ZM23.93,211.77A32.00,32.00 0 0,1 16.77,217.78L20.96,224.59A40.00,40.00 0 0,0 29.91,217.08ZM15.22,218.67A32.00,32.00 0 0,1 6.43,221.87L8.04,229.71A40.00,40.00 0 0,0 19.02,225.71ZM4.67,222.18A32.00,32.00 0 0,1 -4.67,222.18L-5.84,230.10A40.00,40.00 0 0,0 5.84,230.10ZM-6.43,221.87A32.00,32.00 0 0,1 -15.22,218.67L-19.02,225.71A40.00,40.00 0 0,0 -8.04,229.71ZM-16.77,217.78A32.00,32.00 0 0,1 -23.93,211.77L-29.91,217.08A40.00,40.00 0 0,0 -20.96,224.59ZM-25.08,210.40A32.00,32.00 0 0,1 -29.75,202.31L-37.19,205.25A40.00,40.00 0 0,0 -31.35,215.37ZM-30.36,200.63A32.00,32.00 0 0,1 -31.99,191.42L-39.98,191.64A40.00,40.00 0 0,0 -37.96,203.15ZM-31.99,189.63A32.00,32.00 0 0,1 -30.36,180.42L-37.96,177.90A40.00,40.00 0 0,0 -39.98,189.41ZM-29.75,178.75A32.00,32.00 0 0,1 -25.08,170.65L-31.35,165.68A40.00,40.00 0 0,0 -37.19,175.80ZM-23.93,169.28A32.00,32.00 0 0,1 -16.77,163.27L-20.96,156.46A40.00,40.00 0 0,0 -29.91,163.97ZM-15.22,162.38A32.00,32.00 0 0,1 -6.43,159.18L-8.04,151.34A40.00,40.00 0 0,0 -19.02,155.34ZM-4.67,158.87A32.00,32.00 0 0,1 4.67,158.87L5.84,150.95A40.00,40.00 0 0,0 -5.84,150.95ZM6.43,159.18A32.00,32.00 0 0,1 15.22,162.38L19.02,155.34A40.00,40.00 0 0,0 8.04,151.34ZM16.77,163.27A32.00,32.00 0 0,1 23.93,169.28L29.91,163.97A40.00,40.00 0 0,0 20.96,156.46ZM25.08,170.65A32.00,32.00 0 0,1 29.75,178.75L37.19,175.80A40.00,40.00 0 0,0 31.35,165.68ZM30.36,180.42A32.00,32.00 0 0,1 31.99,189.63L39.98,189.41A40.00,40.00 0 0,0 37.96,177.90ZM104.00,190.53a6.00,6.00 0 1,0 12.00,0a6.00,6.00 0 1,0 -12.00,0ZM119.98,191.15A10.00,10.00 0 0,1 117.50,197.14L123.50,202.43A18.00,18.00 0 0,0 127.96,191.66ZM116.61,198.03A10.00,10.00 0 0,1 110.63,200.51L111.13,208.49A18.00,18.00 0 0,0 121.90,204.03ZM109.37,200.51A10.00,10.00 0 0,1 103.39,198.03L98.10,204.03A18.00,18.00 0 0,0 108.87,208.49ZM102.50,197.14A10.00,10.00 0 0,1 100.02,191.15L92.04,191.66A18.00,18.00 0 0,0 96.50,202.43ZM100.02,189.90A10.00,10.00 0 0,1 102.50,183.91L96.50,178.62A18.00,18.00 0 0,0 92.04,189.40ZM103.39,183.02A10.00,10.00 0 0,1 109.37,180.55L108.87,172.56A18.00,18.00 0 0,0 98.10,177.02ZM110.63,180.55A10.00,10.00 0 0,1 116.61,183.02L121.90,177.02A18.00,18.00 0 0,0 111.13,172.56ZM117.50,183.91A10.00,10.00 0 0,1 119.98,189.90L127.96,189.40A18.00,18.00 0 0,0 123.50,178.62ZM129.71,196.16A20.50,20.50 0 0,1 125.88,203.49L132.85,209.18A29.50,29.50 0 0,0 138.36,198.64ZM124.83,204.68A20.50,20.50 0 0,1 118.04,209.38L121.56,217.66A29.50,29.50 0 0,0 131.34,210.89ZM116.56,209.95A20.50,20.50 0 0,1 108.35,210.96L107.63,219.93A29.50,29.50 0 0,0 119.43,218.48ZM106.78,210.77A20.50,20.50 0 0,1 99.04,207.85L94.23,215.46A29.50,29.50 0 0,0 105.36,219.66ZM97.74,206.95A20.50,20.50 0 0,1 92.25,200.78L84.45,205.28A29.50,29.50 0 0,0 92.36,214.17ZM91.51,199.37A20.50,20.50 0 0,1 89.52,191.35L80.52,191.71A29.50,29.50 0 0,0 83.39,203.26ZM89.51,189.77A20.50,20.50 0 0,1 91.48,181.74L83.35,177.88A29.50,29.50 0 0,0 80.52,189.43ZM92.21,180.33A20.50,20.50 0 0,1 97.68,174.14L92.28,166.94A29.50,29.50 0 0,0 84.40,175.86ZM98.99,173.24A20.50,20.50 0 0,1 106.71,170.29L105.27,161.41A29.50,29.50 0 0,0 94.15,165.64ZM108.28,170.10A20.50,20.50 0 0,1 116.49,171.08L119.34,162.54A29.50,29.50 0 0,0 107.53,161.13ZM117.97,171.64A20.50,20.50 0 0,1 124.78,176.32L131.27,170.09A29.50,29.50 0 0,0 121.47,163.35ZM125.84,177.51A20.50,20.50 0 0,1 129.69,184.82L138.33,182.32A29.50,29.50 0 0,0 132.79,171.79ZM130.07,186.36A20.50,20.50 0 0,1 130.09,194.63L138.90,196.42A29.50,29.50 0 0,0 138.88,184.53ZM141.99,191.42A32.00,32.00 0 0,1 140.36,200.63L147.96,203.15A40.00,40.00 0 0,0 149.98,191.64ZM139.75,202.31A32.00,32.00 0 0,1 135.08,210.40L141.35,215.37A40.00,40.00 0 0,0 147.19,205.25ZM133.93,211.77A32.00,32.00 0 0,1 126.77,217.78L130.96,224.59A40.00,40.00 0 0,0 139.91,217.08ZM125.22,218.67A32.00,32.00 0 0,1 116.43,221.87L118.04,229.71A40.00,40.00 0 0,0 129.02,225.71ZM114.67,222.18A32.00,32.00 0 0,1 105.33,222.18L104.16,230.10A40.00,40.00 0 0,0 115.84,230.10ZM103.57,221.87A32.00,32.00 0 0,1 94.78,218.67L90.98,225.71A40.00,40.00 0 0,0 101.96,229.71ZM93.23,217.78A32.00,32.00 0 0,1 86.07,211.77L80.09,217.08A40.00,40.00 0 0,0 89.04,224.59ZM84.92,210.40A32.00,32.00 0 0,1 80.25,202.31L72.81,205.25A40.00,40.00 0 0,0 78.65,215.37ZM79.64,200.63A32.00,32.00 0 0,1 78.01,191.42L70.02,191.64A40.00,40.00 0 0,0 72.04,203.15ZM78.01,189.63A32.00,32.00 0 0,1 79.64,180.42L72.04,177.90A40.00,40.00 0 0,0 70.02,189.41ZM80.25,178.75A32.00,32.00 0 0,1 84.92,170.65L78.65,165.68A40.00,40.00 0 0,0 72.81,175.80ZM86.07,169.28A32.00,32.00 0 0,1 93.23,163.27L89.04,156.46A40.00,40.00 0 0,0 80.09,163.97ZM94.78,162.38A32.00,32.00 0 0,1 103.57,159.18L101.96,151.34A40.00,40.00 0 0,0 90.98,155.34ZM105.33,158.87A32.00,32.00 0 0,1 114.67,158.87L115.84,150.95A40.00,40.00 0 0,0 104.16,150.95ZM116.43,159.18A32.00,32.00 0 0,1 125.22,162.38L129.02,155.34A40.00,40.00 0 0,0 118.04,151.34ZM126.77,163.27A32.00,32.00 0 0,1 133.93,169.28L139.91,163.97A40.00,40.00 0 0,0 130.96,156.46ZM135.08,170.65A32.00,32.00 0 0,1 139.75,178.75L147.19,175.80A40.00,40.00 0 0,0 141.35,165.68ZM140.36,180.42A32.00,32.00 0 0,1 141.99,189.63L149.98,189.41A40.00,40.00 0 0,0 147.96,177.90ZM55.00,14.75L58.82,26.50L71.17,26.50L61.18,33.76L64.99,45.51L55.00,38.25L45.01,45.51L48.82,33.76L38.83,26.50L51.18,26.50ZM61.96,15.98a4.50,4.50 0 1,0 9.00,0a4.50,4.50 0 1,0 -9.00,0ZM69.05,37.78a4.50,4.50 0 1,0 9.00,0a4.50,4.50 0 1,0 -9.00,0ZM31.95,37.78a4.50,4.50 0 1,0 9.00,0a4.50,4.50 0 1,0 -9.00,0ZM39.04,15.98a4.50,4.50 0 1,0 9.00,0a4.50,4.50 0 1,0 -9.00,0ZM55.00,175.77L51.18,164.03L38.83,164.02L48.82,156.76L45.01,145.02L55.00,152.27L64.99,145.02L61.18,156.76L71.17,164.02L58.82,164.03ZM39.04,174.55a4.50,4.50 0 1,0 9.00,0a4.50,4.50 0 1,0 -9.00,0ZM31.95,152.75a4.50,4.50 0 1,0 9.00,0a4.50,4.50 0 1,0 -9.00,0ZM69.05,152.75a4.50,4.50 0 1,0 9.00,0a4.50,4.50 0 1,0 -9.00,0ZM61.96,174.55a4.50,4.50 0 1,0 9.00,0a4.50,4.50 0 1,0 -9.00,0ZM0.00,80.51L-3.82,68.77L-16.17,68.76L-6.18,61.50L-9.99,49.76L-0.00,57.01L9.99,49.76L6.18,61.50L16.17,68.76L3.82,68.77ZM-15.96,79.28a4.50,4.50 0 1,0 9.00,0a4.50,4.50 0 1,0 -9.00,0ZM-23.05,57.48a4.50,4.50 0 1,0 9.00,0a4.50,4.50 0 1,0 -9.00,0ZM14.05,57.48a4.50,4.50 0 1,0 9.00,0a4.50,4.50 0 1,0 -9.00,0ZM6.96,79.28a4.50,4.50 0 1,0 9.00,0a4.50,4.50 0 1,0 -9.00,0ZM110.00,80.51L106.18,68.77L93.83,68.76L103.82,61.50L100.01,49.76L110.00,57.01L119.99,49.76L116.18,61.50L126.17,68.76L113.82,68.77ZM94.04,79.28a4.50,4.50 0 1,0 9.00,0a4.50,4.50 0 1,0 -9.00,0ZM86.95,57.48a4.50,4.50 0 1,0 9.00,0a4.50,4.50 0 1,0 -9.00,0ZM124.05,57.48a4.50,4.50 0 1,0 9.00,0a4.50,4.50 0 1,0 -9.00,0ZM116.96,79.28a4.50,4.50 0 1,0 9.00,0a4.50,4.50 0 1,0 -9.00,0ZM110.00,80.51L106.18,68.77L93.83,68.76L103.82,61.50L100.01,49.76L110.00,57.01L119.99,49.76L116.18,61.50L126.17,68.76L113.82,68.77ZM94.04,79.28a4.50,4.50 0 1,0 9.00,0a4.50,4.50 0 1,0 -9.00,0ZM86.95,57.48a4.50,4.50 0 1,0 9.00,0a4.50,4.50 0 1,0 -9.00,0ZM124.05,57.48a4.50,4.50 0 1,0 9.00,0a4.50,4.50 0 1,0 -9.00,0ZM116.96,79.28a4.50,4.50 0 1,0 9.00,0a4.50,4.50 0 1,0 -9.00,0ZM0.00,80.51L-3.82,68.77L-16.17,68.76L-6.18,61.50L-9.99,49.76L-0.00,57.01L9.99,49.76L6.18,61.50L16.17,68.76L3.82,68.77ZM-15.96,79.28a4.50,4.50 0 1,0 9.00,0a4.50,4.50 0 1,0 -9.00,0ZM-23.05,57.48a4.50,4.50 0 1,0 9.00,0a4.50,4.50 0 1,0 -9.00,0ZM14.05,57.48a4.50,4.50 0 1,0 9.00,0a4.50,4.50 0 1,0 -9.00,0ZM6.96,79.28a4.50,4.50 0 1,0 9.00,0a4.50,4.50 0 1,0 -9.00,0ZM-0.00,110.02L3.82,121.76L16.17,121.76L6.18,129.03L9.99,140.77L0.00,133.52L-9.99,140.77L-6.18,129.03L-16.17,121.76L-3.82,121.76ZM6.96,111.24a4.50,4.50 0 1,0 9.00,0a4.50,4.50 0 1,0 -9.00,0ZM14.05,133.04a4.50,4.50 0 1,0 9.00,0a4.50,4.50 0 1,0 -9.00,0ZM-23.05,133.04a4.50,4.50 0 1,0 9.00,0a4.50,4.50 0 1,0 -9.00,0ZM-15.96,111.24a4.50,4.50 0 1,0 9.00,0a4.50,4.50 0 1,0 -9.00,0ZM110.00,110.02L113.82,121.76L126.17,121.76L116.18,129.03L119.99,140.77L110.00,133.52L100.01,140.77L103.82,129.03L93.83,121.76L106.18,121.76ZM116.96,111.24a4.50,4.50 0 1,0 9.00,0a4.50,4.50 0 1,0 -9.00,0ZM124.05,133.04a4.50,4.50 0 1,0 9.00,0a4.50,4.50 0 1,0 -9.00,0ZM86.95,133.04a4.50,4.50 0 1,0 9.00,0a4.50,4.50 0 1,0 -9.00,0ZM94.04,111.24a4.50,4.50 0 1,0 9.00,0a4.50,4.50 0 1,0 -9.00,0ZM110.00,110.02L113.82,121.76L126.17,121.76L116.18,129.03L119.99,140.77L110.00,133.52L100.01,140.77L103.82,129.03L93.83,121.76L106.18,121.76ZM116.96,111.24a4.50,4.50 0 1,0 9.00,0a4.50,4.50 0 1,0 -9.00,0ZM124.05,133.04a4.50,4.50 0 1,0 9.00,0a4.50,4.50 0 1,0 -9.00,0ZM86.95,133.04a4.50,4.50 0 1,0 9.00,0a4.50,4.50 0 1,0 -9.00,0ZM94.04,111.24a4.50,4.50 0 1,0 9.00,0a4.50,4.50 0 1,0 -9.00,0ZM-0.00,110.02L3.82,121.76L16.17,121.76L6.18,129.03L9.99,140.77L0.00,133.52L-9.99,140.77L-6.18,129.03L-16.17,121.76L-3.82,121.76ZM6.96,111.24a4.50,4.50 0 1,0 9.00,0a4.50,4.50 0 1,0 -9.00,0ZM14.05,133.04a4.50,4.50 0 1,0 9.00,0a4.50,4.50 0 1,0 -9.00,0ZM-23.05,133.04a4.50,4.50 0 1,0 9.00,0a4.50,4.50 0 1,0 -9.00,0ZM-15.96,111.24a4.50,4.50 0 1,0 9.00,0a4.50,4.50 0 1,0 -9.00,0ZM48.50,0.00a6.50,6.50 0 1,0 13.00,0a6.50,6.50 0 1,0 -13.00,0ZM48.50,190.53a6.50,6.50 0 1,0 13.00,0a6.50,6.50 0 1,0 -13.00,0ZM21.00,47.63a6.50,6.50 0 1,0 13.00,0a6.50,6.50 0 1,0 -13.00,0ZM76.00,47.63a6.50,6.50 0 1,0 13.00,0a6.50,6.50 0 1,0 -13.00,0ZM21.00,142.89a6.50,6.50 0 1,0 13.00,0a6.50,6.50 0 1,0 -13.00,0ZM76.00,142.89a6.50,6.50 0 1,0 13.00,0a6.50,6.50 0 1,0 -13.00,0Z"/></svg>